<?xml version="1.0" encoding="UTF-8"?>
<svg xmlns="http://www.w3.org/2000/svg" xmlns:xlink="http://www.w3.org/1999/xlink" width="20pt" height="20pt" viewBox="0 0 24 24" version="1.1">
<g id="surface1">
<path style=" stroke:none;fill-rule:nonzero;fill:rgb(83.529412%,4.313725%,4.313725%);fill-opacity:1;" d="M 0.355469 11.996094 C 0.355469 5.507812 5.597656 0.257812 12.066406 0.257812 C 18.535156 0.257812 23.78125 5.507812 23.78125 11.996094 C 23.78125 18.480469 18.535156 23.730469 12.066406 23.730469 C 5.597656 23.730469 0.355469 18.480469 0.355469 11.996094 Z M 0.355469 11.996094 "/>
<path style=" stroke:none;fill-rule:nonzero;fill:rgb(100%,100%,100%);fill-opacity:1;" d="M 12.066406 5.140625 C 10.191406 5.140625 8.675781 6.652344 8.675781 8.515625 C 8.675781 10.023438 10.894531 12.765625 11.738281 13.761719 C 11.910156 13.964844 12.222656 13.964844 12.394531 13.761719 C 13.238281 12.765625 15.457031 10.023438 15.457031 8.515625 C 15.457031 6.652344 13.941406 5.140625 12.066406 5.140625 Z M 12.066406 9.640625 C 11.445312 9.640625 10.933594 9.136719 10.933594 8.515625 C 10.933594 7.890625 11.445312 7.390625 12.066406 7.390625 C 12.691406 7.390625 13.199219 7.890625 13.199219 8.515625 C 13.199219 9.136719 12.691406 9.640625 12.066406 9.640625 Z M 4.855469 10.921875 C 4.527344 11.054688 4.3125 11.367188 4.3125 11.71875 L 4.3125 18.421875 C 4.3125 18.726562 4.625 18.933594 4.90625 18.816406 L 8.621094 17.136719 L 8.621094 10.894531 C 8.382812 10.46875 8.1875 10.050781 8.050781 9.652344 Z M 12.066406 14.769531 C 11.6875 14.769531 11.328125 14.605469 11.085938 14.316406 C 10.558594 13.695312 9.992188 12.984375 9.484375 12.261719 L 9.484375 17.136719 L 14.648438 18.851562 L 14.648438 12.261719 C 14.140625 12.984375 13.582031 13.695312 13.046875 14.316406 C 12.804688 14.605469 12.445312 14.769531 12.066406 14.769531 Z M 19.226562 9.453125 L 15.511719 11.136719 L 15.511719 18.851562 L 19.277344 17.351562 C 19.605469 17.222656 19.820312 16.90625 19.820312 16.554688 L 19.820312 9.851562 C 19.820312 9.550781 19.511719 9.34375 19.226562 9.453125 Z M 19.226562 9.453125 "/>
</g>
</svg>
